Coordinates
nRows=125
nColumns=3

# SIMM Motion File Header:
name Coordinates
datacolumns 3
datarows 125
otherdata 1
range 0.02999999999999999900 0.15400000000000000000
endheader
time	r_shoulder_elev	r_elbow_flex
      0.02999999999999999900	     -0.31654740221779104000	      1.05299712910101100000
      0.03100000000000000000	     -0.31476190216174277000	      1.06075488402594090000
      0.03200000000000000100	     -0.31296691245077946000	      1.06872493781201140000
      0.03300000000000000200	     -0.31115910105872041000	      1.07698281529393220000
      0.03400000000000000200	     -0.30935128966666137000	      1.08524069277585310000
      0.03499999999999999600	     -0.30752858999881982000	      1.09411822591106730000
      0.03599999999999999700	     -0.30570463657973956000	      1.10304794064569970000
      0.03699999999999999800	     -0.30387627766914221000	      1.11229085717048330000
      0.03799999999999999900	     -0.30204189285395694000	      1.12196217631434860000
      0.03900000000000000000	     -0.30020750803877161000	      1.13163349545821390000
      0.04000000000000000100	     -0.29835695617096925000	      1.14200360201791720000
      0.04100000000000000200	     -0.29650504286531193000	      1.15243255391344170000
      0.04199999999999999600	     -0.29463089889420857000	      1.16335009778072540000
      0.04299999999999999700	     -0.29274341652383756000	      1.17456079683106470000
      0.04399999999999999700	     -0.29084961305427443000	      1.18587661066915850000
      0.04499999999999999800	     -0.28891156189036626000	      1.19792822802153150000
      0.04599999999999999900	     -0.28697351072645810000	      1.20997984537390480000
      0.04700000000000000000	     -0.28500492697235086000	      1.22258355130272230000
      0.04800000000000000100	     -0.28301802366412415000	      1.23551851037740650000
      0.04900000000000000200	     -0.28102769494066682000	      1.24856659505602940000
      0.05000000000000000300	     -0.27901338831059541000	      1.26240655896222490000
      0.05099999999999999700	     -0.27699908168052395000	      1.27624652286842010000
      0.05199999999999999800	     -0.27498983053202625000	      1.29095993697576470000
      0.05299999999999999900	     -0.27298130159518197000	      1.30579812968327320000
      0.05399999999999999900	     -0.27098786357678034000	      1.32106606768094200000
      0.05500000000000000000	     -0.26901957708911667000	      1.33705024782887750000
      0.05600000000000000100	     -0.26705129060145300000	      1.35303442797681290000
      0.05700000000000000200	     -0.26513020972344858000	      1.37007034814882540000
      0.05799999999999999600	     -0.26321587250396689000	      1.38725651689570560000
      0.05899999999999999700	     -0.26130928482464616000	      1.40485544872013370000
      0.05999999999999999800	     -0.25941561304559357000	      1.42314231900714130000
      0.06099999999999999900	     -0.25751397910787877000	      1.44154554936732590000
      0.06200000000000000000	     -0.25555661005952812000	      1.46076330023975000000
      0.06300000000000000000	     -0.25359924101117753000	      1.47998105111217400000
      0.06400000000000000100	     -0.25154811675748573000	      1.49970746034982820000
      0.06500000000000000200	     -0.24944073938058928000	      1.51973906460662040000
      0.06600000000000000300	     -0.24731361361198539000	      1.53987387203611200000
      0.06700000000000000400	     -0.24504824910142950000	      1.56073110167449800000
      0.06800000000000000500	     -0.24278288459087360000	      1.58158833131288400000
      0.06900000000000000600	     -0.24045998356715564000	      1.60303098334027960000
      0.07000000000000000700	     -0.23810256063554044000	      1.62482488880108100000
      0.07099999999999999400	     -0.23575069674906882000	      1.64706501549719550000
      0.07199999999999999500	     -0.23340809793783635000	      1.67004884425216620000
      0.07299999999999999500	     -0.23106549912660385000	      1.69303267300713660000
      0.07399999999999999600	     -0.22883190808986847000	      1.71732914773849330000
      0.07499999999999999700	     -0.22661388959234693000	      1.74181314332361950000
      0.07599999999999999800	     -0.22445928428808390000	      1.76689837052670030000
      0.07699999999999999900	     -0.22241036763925173000	      1.79298565042637240000
      0.07800000000000000000	     -0.22036145099041954000	      1.81907293032604440000
      0.07900000000000000100	     -0.21841077084987937000	      1.84641012228444380000
      0.08000000000000000200	     -0.21647412449623804000	      1.87392587310837540000
      0.08100000000000000300	     -0.21452049776036952000	      1.90215297589035610000
      0.08200000000000000300	     -0.21255668279516465000	      1.93080688984716620000
      0.08300000000000000400	     -0.21056726996970718000	      1.95956406471089230000
      0.08400000000000000500	     -0.20839867212248150000	      1.98904406592303240000
      0.08500000000000000600	     -0.20623007427525583000	      2.01852406713517230000
      0.08599999999999999300	     -0.20389376016156044000	      2.04844612742025810000
      0.08699999999999999400	     -0.20145681628798318000	      2.07863342314911170000
      0.08799999999999999500	     -0.19899835877521682000	      2.10892759505081260000
      0.08899999999999999600	     -0.19638930578812674000	      2.13996990016244480000
      0.08999999999999999700	     -0.19378025280103667000	      2.17101220527407700000
      0.09099999999999999800	     -0.19119668725892813000	      2.20316769350706740000
      0.09199999999999999800	     -0.18861676278038841000	      2.23548220790025190000
      0.09299999999999999900	     -0.18613914291320258000	      2.26847924033939210000
      0.09400000000000000000	     -0.18383203073160659000	      2.30261380285512460000
      0.09500000000000000100	     -0.18152491855001060000	      2.33674836537085760000
      0.09600000000000000200	     -0.17956357049274824000	      2.37267294455562450000
      0.09700000000000000300	     -0.17765161731039067000	      2.40885324040739590000
      0.09800000000000000400	     -0.17585383236822377000	      2.44571998362596550000
      0.09900000000000000500	     -0.17424632782637470000	      2.48373080578919800000
      0.10000000000000001000	     -0.17263882328452562000	      2.52174162795243010000
      0.10100000000000001000	     -0.17105750405006734000	      2.56100339703776440000
      0.10200000000000001000	     -0.16947618481560908000	      2.60026516612309870000
      0.10299999999999999000	     -0.16767553241534253000	      2.63987466124587210000
      0.10400000000000000000	     -0.16574328011559100000	      2.67969279199110980000
      0.10500000000000000000	     -0.16374076740715665000	      2.71954027753293910000
      0.10600000000000000000	     -0.16124643183794274000	      2.75959324665090970000
      0.10700000000000000000	     -0.15875209626872880000	      2.79964621576887970000
      0.10800000000000000000	     -0.15599270845140248000	      2.84003000766358580000
      0.10900000000000000000	     -0.15307428928520869000	      2.88061229322433390000
      0.11000000000000000000	     -0.15015120530628603000	      2.92133530778402540000
      0.11100000000000000000	     -0.14719546763826141000	      2.96304342533632110000
      0.11200000000000000000	     -0.14423972997023676000	      3.00475154288861690000
      0.11300000000000000000	     -0.14154726099590390000	      3.04782605049674250000
      0.11400000000000000000	     -0.13889240183495558000	      3.09109575668427270000
      0.11500000000000000000	     -0.13643254910352676000	      3.13504099751841060000
      0.11600000000000001000	     -0.13429770708796382000	      3.18011212943022860000
      0.11700000000000001000	     -0.13216286507240088000	      3.22518326134204660000
      0.11799999999999999000	     -0.13044822874895409000	      3.27170351103123870000
      0.11899999999999999000	     -0.12879362181009529000	      3.31843077754577060000
      0.12000000000000000000	     -0.12724820623713878000	      3.36571432235933400000
      0.12100000000000000000	     -0.12588477627401942000	      3.41392499767128270000
      0.12200000000000000000	     -0.12456594518061249000	      3.46240297026114030000
      0.12300000000000000000	     -0.12355930617519235000	      3.51275202379635940000
      0.12400000000000000000	     -0.12255266716977221000	      3.56310107733157850000
      0.12500000000000000000	     -0.12184393004737339000	      3.61530514069781140000
      0.12600000000000000000	     -0.12131393405478731000	      3.66862220996265260000
      0.12700000000000000000	     -0.12082869268032738000	      3.72228252040463080000
      0.12800000000000000000	     -0.12065673363275035000	      3.77834551908656510000
      0.12900000000000000000	     -0.12048477458517333000	      3.83440851776849940000
      0.13000000000000000000	     -0.12031743325713570000	      3.89129431758238460000
      0.13100000000000001000	     -0.12015286256082172000	      3.94867379807544030000
      0.13200000000000001000	     -0.11970591151247734000	      4.00551441448592270000
      0.13300000000000001000	     -0.11878832654408235000	      4.06145692409211630000
      0.13400000000000001000	     -0.11787074157568736000	      4.11739943369830910000
      0.13500000000000001000	     -0.11568125569461471000	      4.16987457097950910000
      0.13600000000000001000	     -0.11331006968315961000	      4.22185436935713820000
      0.13700000000000001000	     -0.11045795247182581000	      4.27242657161459500000
      0.13800000000000001000	     -0.10680428326069433000	      4.32065278033843030000
      0.13900000000000001000	     -0.10315061404956286000	      4.36887898906226630000
      0.14000000000000001000	     -0.09939795801010332900	      4.41682842509304410000
      0.14100000000000001000	     -0.09563116099516837100	      4.46473832216767090000
      0.14200000000000002000	     -0.09311465601918404700	      4.51640067455975910000
      0.14299999999999999000	     -0.09134832626657002400	      4.57031450014232290000
      0.14399999999999999000	     -0.09007870753173279100	      4.62572926487590320000
      0.14499999999999999000	     -0.09228606592133298300	      4.69165060366659240000
      0.14599999999999999000	     -0.09449342431093317500	      4.75757194245728070000
      0.14699999999999999000	     -0.09912198906091251900	      4.83101211015957780000
      0.14799999999999999000	     -0.10520327762711928000	      4.90896357520883870000
      0.14899999999999999000	     -0.11145396328304664000	      4.98753015490085170000
      0.14999999999999999000	     -0.11889042856701811000	      5.07040253709212510000
      0.15100000000000000000	     -0.12632689385098955000	      5.15327491928339930000
      0.15200000000000000000	     -0.13143776063805038000	      5.23049490483571940000
      0.15300000000000000000	     -0.13621639906840974000	      5.30690740515390400000
      0.15400000000000000000	     -0.13850054957070468000	      5.37669964406007940000
